<?xml version="1.0" standalone="no"?>
<!DOCTYPE svg PUBLIC "-//W3C//DTD SVG 20010904//EN"
 "http://www.w3.org/TR/2001/REC-SVG-20010904/DTD/svg10.dtd">
<svg version="1.0" xmlns="http://www.w3.org/2000/svg"
 width="512.000000pt" height="512.000000pt" viewBox="0 0 512.000000 512.000000"
 preserveAspectRatio="xMidYMid meet">

<g transform="translate(0.000000,512.000000) scale(0.100000,-0.100000)"
fill="#000000" stroke="none">
<path d="M1585 4985 c-31 -30 -32 -64 -3 -101 13 -16 162 -191 332 -389 l310
-360 -425 -12 c-620 -17 -1317 -54 -1384 -74 -158 -45 -292 -190 -324 -349
-16 -80 -48 -409 -66 -680 -23 -334 -30 -902 -16 -1225 21 -501 66 -975 101
-1069 31 -82 98 -166 170 -214 93 -62 168 -82 342 -89 81 -3 152 -9 158 -13 6
-4 22 -56 36 -116 31 -138 40 -159 70 -173 35 -16 48 -14 78 10 32 25 33 57 6
171 -11 46 -20 88 -20 93 0 7 46 8 133 3 874 -45 1877 -47 2810 -6 147 6 270
9 273 6 3 -3 -4 -45 -15 -93 -28 -118 -27 -148 5 -174 30 -24 43 -26 78 -10
30 14 39 35 70 173 14 60 30 112 37 116 6 4 75 11 152 15 77 4 165 13 196 21
159 42 289 168 330 321 6 23 20 124 31 225 55 516 77 1089 61 1581 -17 526
-64 1074 -101 1181 -58 171 -204 285 -391 306 -169 19 -874 53 -1447 68 l-252
7 330 384 c357 415 357 415 305 466 -34 35 -71 32 -109 -8 -17 -19 -188 -217
-381 -440 l-349 -407 -146 0 -145 1 -365 425 c-201 234 -374 432 -385 440 -29
21 -63 17 -90 -11z m2060 -1324 c624 -31 747 -41 795 -64 25 -13 57 -41 74
-64 25 -36 31 -59 47 -185 54 -425 78 -971 61 -1404 -7 -165 -17 -352 -23
-417 -7 -82 -7 -123 0 -131 8 -10 -57 -70 -262 -241 -149 -126 -284 -233 -298
-239 -39 -14 -63 5 -171 135 -59 71 -94 105 -96 95 -4 -19 -1 -23 122 -169 59
-71 105 -117 116 -117 10 0 142 103 292 229 150 126 274 228 276 226 8 -8 -31
-282 -44 -315 -24 -55 -73 -99 -129 -115 -27 -7 -102 -16 -165 -20 -879 -47
-1517 -61 -2177 -46 -478 11 -636 17 -1078 41 -257 15 -296 22 -345 67 -51 45
-66 91 -84 248 -53 458 -74 948 -57 1371 20 511 61 915 101 978 38 63 85 86
191 96 132 13 638 39 934 50 321 11 1633 5 1920 -9z"/>
</g>
</svg>
